<svg id="coder" enable-background="new 0 0 300 300" height="512" viewBox="0 0 300 300" width="512" xmlns="http://www.w3.org/2000/svg"><circle cx="144.113" cy="128.674" fill="#e5efef" r="92"/><path d="m32.113 112.674h132v108h-132z" fill="#fff"/><path d="m164.113 224.674h-132c-2.209 0-4-1.791-4-4v-108c0-2.209 1.791-4 4-4h132c2.209 0 4 1.791 4 4v108c0 2.209-1.791 4-4 4zm-128-8h124v-100h-124z" fill="#4c241d"/><path d="m54.113 72.674c-7.719 0-14-6.281-14-14s6.281-14 14-14 14 6.281 14 14-6.282 14-14 14zm0-20c-3.309 0-6 2.691-6 6s2.691 6 6 6 6-2.691 6-6-2.692-6-6-6z" fill="#4c241d"/><path d="m250.113 112.674c-7.719 0-14-6.281-14-14s6.281-14 14-14 14 6.281 14 14-6.282 14-14 14zm0-20c-3.309 0-6 2.691-6 6s2.691 6 6 6 6-2.691 6-6-2.692-6-6-6z" fill="#4c241d"/><circle cx="234.113" cy="38.674" fill="#4c241d" r="4.529"/><circle cx="226.113" cy="134.674" fill="#4c241d" r="4.529"/><circle cx="86.113" cy="34.674" fill="#4c241d" r="4.529"/><path d="m188.765 50.021c-1.023 0-2.047-.391-2.828-1.172-1.562-1.562-1.562-4.094 0-5.656l14.695-14.695c1.562-1.562 4.094-1.562 5.656 0s1.562 4.094 0 5.656l-14.695 14.696c-.781.781-1.805 1.171-2.828 1.171z" fill="#4c241d"/><path d="m32.113 204.674h132v20h-132z" fill="#6b4f5b"/><path d="m164.113 228.674h-132c-2.209 0-4-1.791-4-4v-20c0-2.209 1.791-4 4-4h132c2.209 0 4 1.791 4 4v20c0 2.209-1.791 4-4 4zm-128-8h124v-12h-124z" fill="#4c241d"/><path d="m203.46 50.021c-1.023 0-2.047-.391-2.828-1.172l-14.695-14.695c-1.562-1.562-1.562-4.094 0-5.656s4.094-1.562 5.656 0l14.695 14.695c1.562 1.562 1.562 4.094 0 5.656-.781.782-1.804 1.172-2.828 1.172z" fill="#4c241d"/><path d="m152.754 48.733c-19.786-.878-37.504 8.162-48.605 22.567-4.726 6.132-7.821 13.36-9.659 20.88-1.169 4.787-2.377 10.659-2.377 14.494v150h116v-148.462c0-31.275-24.115-58.093-55.359-59.479z" fill="#ffce56"/><path d="m208.113 260.674h-116c-2.209 0-4-1.791-4-4v-150c0-3.484.838-8.68 2.492-15.443 2.113-8.654 5.604-16.182 10.375-22.373 12.33-15.998 31.719-25.025 51.951-24.121 33.186 1.473 59.182 29.355 59.182 63.477v148.461c0 2.208-1.791 3.999-4 3.999zm-112-8h108v-144.461c0-29.83-22.637-54.201-51.537-55.484-17.557-.771-34.518 7.076-45.26 21.012-4.084 5.303-7.092 11.826-8.941 19.389-1.479 6.057-2.262 10.74-2.262 13.545z" fill="#4c241d"/><path d="m220.113 268.674h-144v-32.902c0-14.82 8.534-28.25 21.776-34.269l50.224-22.829 50.224 22.829c13.242 6.019 21.776 19.449 21.776 34.269z" fill="#a9ba5a"/><path d="m220.113 272.674h-144c-2.209 0-4-1.791-4-4v-32.902c0-16.371 9.469-31.25 24.121-37.91l50.225-22.828c1.051-.48 2.258-.48 3.309 0l50.225 22.83c14.652 6.658 24.121 21.537 24.121 37.908v32.902c-.001 2.209-1.792 4-4.001 4zm-140-8h136v-28.902c0-13.24-7.627-25.262-19.43-30.625l-48.57-22.078-48.57 22.076c-11.803 5.365-19.43 17.387-19.43 30.627z" fill="#4c241d"/><path d="m148.113 200.674c-8.837 0-16-7.163-16-16v-8h32v8c0 8.836-7.164 16-16 16z" fill="#e7d1c4"/><path d="m148.113 204.674c-11.027 0-20-8.973-20-20v-8c0-2.209 1.791-4 4-4h32c2.209 0 4 1.791 4 4v8c0 11.027-8.973 20-20 20zm-12-24v4c0 6.617 5.383 12 12 12s12-5.383 12-12v-4z" fill="#4c241d"/><path d="m204.235 119.565c-24.123 13.109-83.904-12.188-86.094-32.111l-.383.033c1.405 29.27-21.646 32.022-21.646 32.022-3.635 1.589-6.145 5.274-5.993 9.53.114 3.199 2.081 6.09 4.734 7.88 3.217 2.171 5.98 2.017 8.431 1.192 3.969 19.359 18.022 35.548 37.427 41.794 5.563 1.791 11.581 1.62 17.141-.182l1.775-.575c19.093-6.188 33.023-22.039 37.173-41.079 2.441.861 5.222 1.011 8.371-.95 2.549-1.588 4.495-4.194 4.862-7.175.565-4.582-1.975-8.646-5.798-10.379z" fill="#e7d1c4"/><path d="m148.865 185.176c-3.195 0-6.35-.486-9.377-1.461-19.201-6.184-33.936-21.715-39.223-41.039-2.611.061-5.174-.77-7.648-2.439-3.914-2.643-6.342-6.773-6.496-11.053-.203-5.785 3.09-11.02 8.389-13.338.359-.158.74-.262 1.129-.309.768-.1 19.326-2.836 18.125-27.859-.102-2.146 1.508-3.99 3.648-4.176 2.221-.211 4.467 1.354 4.705 3.514.646 5.879 8.965 13.67 21.711 20.334 18.41 9.625 45.166 15.938 58.498 8.701 1.1-.6 2.422-.646 3.562-.129 5.611 2.545 8.871 8.377 8.117 14.51-.494 4.002-3.006 7.771-6.721 10.084-2.414 1.504-4.924 2.25-7.52 2.15-5.441 18.932-20.053 34.176-38.902 40.287l-1.779.576c-3.384 1.098-6.826 1.647-10.218 1.647zm-45.581-51.065c.693 0 1.381.18 1.994.533.994.57 1.693 1.541 1.924 2.664 3.738 18.23 17.047 33.096 34.736 38.791 4.633 1.49 9.715 1.424 14.68-.182l1.779-.576c17.379-5.633 30.598-20.242 34.496-38.125.244-1.121.959-2.084 1.961-2.643 1.004-.561 2.195-.658 3.277-.277 1.814.643 3.244.477 4.924-.572 1.684-1.049 2.809-2.645 3.008-4.27.254-2.064-.541-4.045-2.047-5.336-16.947 7.42-44.617.398-63.896-9.68-8.363-4.373-14.967-9.197-19.432-14.084-4.324 18.221-19.738 22.289-23.344 22.996-2.057 1.068-3.312 3.203-3.229 5.547.061 1.703 1.201 3.508 2.975 4.707 1.947 1.314 3.377 1.236 4.918.715.417-.139.847-.208 1.276-.208z" fill="#4c241d"/><path d="m148.113 168.674c-2.916 0-5.729-1.061-7.92-2.984-1.66-1.457-1.824-3.984-.367-5.645 1.457-1.662 3.982-1.824 5.645-.367 1.594 1.398 4.191 1.254 5.607-.32 1.482-1.639 4.012-1.768 5.65-.287 1.639 1.482 1.768 4.012.287 5.65-2.272 2.511-5.516 3.953-8.902 3.953z" fill="#4c241d"/><path d="m96.113 272.674c-2.209 0-4-1.791-4-4v-20c0-2.209 1.791-4 4-4s4 1.791 4 4v20c0 2.209-1.791 4-4 4z" fill="#4c241d"/><path d="m130.113 156.674c-9.926 0-18-8.074-18-18s8.074-18 18-18 18 8.074 18 18-8.075 18-18 18zm0-28c-5.514 0-10 4.486-10 10s4.486 10 10 10 10-4.486 10-10-4.487-10-10-10z" fill="#4c241d"/><path d="m170.113 156.674c-9.926 0-18-8.074-18-18s8.074-18 18-18 18 8.074 18 18-8.075 18-18 18zm0-28c-5.514 0-10 4.486-10 10s4.486 10 10 10 10-4.486 10-10-4.487-10-10-10z" fill="#4c241d"/><circle cx="170.113" cy="138.674" fill="#4c241d" r="3.442"/><circle cx="130.113" cy="138.674" fill="#4c241d" r="3.442"/><path d="m156.113 144.674h-12c-2.209 0-4-1.791-4-4s1.791-4 4-4h12c2.209 0 4 1.791 4 4s-1.791 4-4 4z" fill="#4c241d"/><path d="m207.312 268.674h33.602c3.976 0 7.199-3.223 7.199-7.199v-8.801h-48v8.801c0 3.976 3.223 7.199 7.199 7.199z" fill="#6b4f5b"/><path d="m240.913 272.674h-33.602c-6.176 0-11.199-5.023-11.199-11.199v-8.801c0-2.209 1.791-4 4-4h48c2.209 0 4 1.791 4 4v8.801c.001 6.175-5.023 11.199-11.199 11.199zm-36.8-16v4.801c0 1.764 1.436 3.199 3.199 3.199h33.602c1.764 0 3.199-1.436 3.199-3.199v-4.801z" fill="#4c241d"/><path d="m200.113 204.674h48v48h-48z" fill="#fff"/><path d="m248.113 256.674h-48c-2.209 0-4-1.791-4-4v-48c0-2.209 1.791-4 4-4h48c2.209 0 4 1.791 4 4v48c0 2.209-1.791 4-4 4zm-44-8h40v-40h-40z" fill="#4c241d"/><path d="m240.913 188.674h-33.602c-3.976 0-7.199 3.223-7.199 7.199v8.801h48v-8.801c.001-3.976-3.223-7.199-7.199-7.199z" fill="#6b4f5b"/><g fill="#4c241d"><path d="m248.113 208.674h-48c-2.209 0-4-1.791-4-4v-8.801c0-6.176 5.023-11.199 11.199-11.199h33.602c6.176 0 11.199 5.023 11.199 11.199v8.801c0 2.209-1.791 4-4 4zm-44-8h40v-4.801c0-1.764-1.436-3.199-3.199-3.199h-33.602c-1.764 0-3.199 1.436-3.199 3.199z"/><path d="m163.96 255.299c-1.127 0-2.248-.475-3.039-1.396-1.438-1.678-1.244-4.203.434-5.641l7.084-6.074-7.309-7.311c-1.562-1.562-1.562-4.096 0-5.656 1.562-1.562 4.094-1.562 5.656 0l10.363 10.365c.789.787 1.211 1.869 1.168 2.982-.041 1.113-.547 2.158-1.393 2.883l-10.363 8.885c-.753.646-1.679.963-2.601.963z"/><path d="m136.265 255.299c-.922 0-1.848-.316-2.602-.963l-10.363-8.885c-.846-.725-1.352-1.77-1.393-2.883-.043-1.113.379-2.195 1.168-2.982l10.363-10.365c1.562-1.562 4.094-1.562 5.656 0 1.562 1.561 1.562 4.094 0 5.656l-7.309 7.311 7.084 6.074c1.678 1.438 1.871 3.963.434 5.641-.79.921-1.911 1.396-3.038 1.396z"/><path d="m149.156 253.816c-.225 0-.455-.018-.686-.059-2.176-.375-3.637-2.445-3.26-4.623l2.961-17.143c.375-2.176 2.418-3.635 4.623-3.26 2.176.375 3.637 2.445 3.26 4.623l-2.961 17.143c-.336 1.946-2.025 3.319-3.937 3.319z"/><path d="m52.113 144.674c-2.209 0-4-1.791-4-4v-4c-1.023 0-2.047-.391-2.828-1.172-1.562-1.562-1.562-4.094 0-5.656l4-4c1.143-1.145 2.857-1.488 4.359-.867 1.494.619 2.469 2.078 2.469 3.695v12c0 2.209-1.791 4-4 4z"/><path d="m76.113 168.674c-2.209 0-4-1.791-4-4v-4c-1.023 0-2.047-.391-2.828-1.172-1.562-1.562-1.562-4.094 0-5.656l4-4c1.143-1.145 2.861-1.49 4.359-.867 1.494.619 2.469 2.078 2.469 3.695v12c0 2.209-1.791 4-4 4z"/><path d="m70.113 144.674c-5.514 0-10-4.486-10-10s4.486-10 10-10 10 4.486 10 10-4.487 10-10 10zm0-12c-1.104 0-2 .896-2 2s.896 2 2 2 2-.896 2-2-.897-2-2-2z"/><path d="m52.113 192.674c-2.209 0-4-1.791-4-4v-4c-1.023 0-2.047-.391-2.828-1.172-1.562-1.562-1.562-4.094 0-5.656l4-4c1.143-1.146 2.857-1.492 4.359-.867 1.494.619 2.469 2.078 2.469 3.695v12c0 2.209-1.791 4-4 4z"/><path d="m70.113 192.674c-5.514 0-10-4.486-10-10s4.486-10 10-10 10 4.486 10 10-4.487 10-10 10zm0-12c-1.104 0-2 .896-2 2s.896 2 2 2 2-.896 2-2-.897-2-2-2z"/><path d="m54.113 168.674c-5.514 0-10-4.486-10-10s4.486-10 10-10 10 4.486 10 10-4.487 10-10 10zm0-12c-1.104 0-2 .896-2 2s.896 2 2 2 2-.896 2-2-.897-2-2-2z"/></g><path d="m229.691 194.137 16.445-8.079c1.877.527 3.855.8 5.911.643 9.44-.72 16.51-8.956 15.79-18.397s-8.956-16.51-18.397-15.79c-9.44.72-16.51 8.956-15.79 18.397.299 3.928 1.949 7.396 4.397 10.113z" fill="#fff"/><path d="m229.693 198.137c-1.111 0-2.205-.463-2.982-1.332-1.195-1.336-1.357-3.305-.393-4.818l6.844-10.736c-2.025-3.01-3.225-6.428-3.498-10.037-.887-11.621 7.848-21.801 19.473-22.688 5.648-.408 11.096 1.361 15.379 5.039 4.285 3.678 6.883 8.805 7.311 14.438.887 11.621-7.848 21.801-19.473 22.688-1.871.141-3.795.006-5.754-.402l-15.145 7.439c-.563.276-1.167.409-1.762.409zm21.07-41.674c-.338 0-.678.014-1.02.039-3.498.268-6.686 1.881-8.973 4.545-2.285 2.664-3.398 6.059-3.131 9.559.217 2.85 1.385 5.527 3.381 7.74 1.203 1.336 1.367 3.311.4 4.828l-.691 1.084 3.643-1.789c.883-.432 1.895-.531 2.842-.262 1.607.447 3.078.613 4.531.506 3.498-.268 6.686-1.881 8.973-4.545 2.285-2.664 3.398-6.059 3.131-9.559-.268-3.502-1.881-6.689-4.545-8.975-2.404-2.064-5.404-3.171-8.541-3.171z" fill="#4c241d"/><path d="m228.113 220.674h-8c-2.209 0-4-1.791-4-4s1.791-4 4-4h8c2.209 0 4 1.791 4 4s-1.791 4-4 4z" fill="#4c241d"/></svg>