<svg id="scientist" enable-background="new 0 0 300 300" height="512" viewBox="0 0 300 300" width="512" xmlns="http://www.w3.org/2000/svg"><circle cx="142" cy="120.674" fill="#e5efef" r="92"/><path d="m170.641 48.733c-19.786-.878-37.504 8.162-48.605 22.567-4.726 6.132-7.821 13.36-9.659 20.88-1.169 4.787-2.377 10.659-2.377 14.494v150h116v-148.462c0-31.275-24.115-58.093-55.359-59.479z" fill="#ffce56"/><g fill="#4c241d"><path d="m226 260.674h-116c-2.211 0-4-1.789-4-4v-150c0-3.488.84-8.684 2.492-15.445 2.113-8.656 5.605-16.184 10.375-22.371 12.332-16.004 31.816-24.992 51.949-24.121 33.188 1.472 59.184 29.355 59.184 63.476v148.461c0 2.211-1.789 4-4 4zm-112-8h108v-144.461c0-29.832-22.637-54.203-51.535-55.484-17.668-.77-34.52 7.074-45.262 21.012-4.086 5.301-7.09 11.824-8.938 19.387-1.461 5.969-2.266 10.777-2.266 13.547v145.999z"/><path d="m82 152.674h-40c-2.211 0-4-1.789-4-4s1.789-4 4-4h40c2.211 0 4 1.789 4 4s-1.789 4-4 4z"/><path d="m262 196.674h-40c-2.211 0-4-1.789-4-4s1.789-4 4-4h40c2.211 0 4 1.789 4 4s-1.789 4-4 4z"/><path d="m56 64.674c-7.719 0-14-6.281-14-14s6.281-14 14-14 14 6.281 14 14-6.281 14-14 14zm0-20c-3.309 0-6 2.691-6 6s2.691 6 6 6 6-2.691 6-6-2.691-6-6-6z"/><path d="m256 116.674c-7.719 0-14-6.281-14-14s6.281-14 14-14 14 6.281 14 14-6.281 14-14 14zm0-20c-3.309 0-6 2.691-6 6s2.691 6 6 6 6-2.691 6-6-2.691-6-6-6z"/><circle cx="100" cy="38.674" r="4.529"/><circle cx="84" cy="86.674" r="4.529"/><circle cx="256" cy="162.674" r="4.529"/><circle cx="208" cy="38.674" r="4.529"/><path d="m246.652 50.021c-1.023 0-2.047-.391-2.828-1.172-1.562-1.562-1.562-4.094 0-5.656l14.695-14.695c1.562-1.562 4.094-1.562 5.656 0s1.562 4.094 0 5.656l-14.695 14.696c-.781.781-1.804 1.171-2.828 1.171z"/><path d="m261.348 50.021c-1.023 0-2.047-.391-2.828-1.172l-14.695-14.695c-1.562-1.562-1.562-4.094 0-5.656s4.094-1.562 5.656 0l14.695 14.695c1.562 1.562 1.562 4.094 0 5.656-.781.782-1.805 1.172-2.828 1.172z"/><path d="m42.652 118.021c-1.023 0-2.047-.391-2.828-1.172-1.562-1.562-1.562-4.094 0-5.656l14.696-14.695c1.562-1.562 4.094-1.562 5.656 0s1.562 4.094 0 5.656l-14.696 14.696c-.781.781-1.804 1.171-2.828 1.171z"/><path d="m57.348 118.021c-1.023 0-2.047-.391-2.828-1.172l-14.695-14.695c-1.562-1.562-1.562-4.094 0-5.656s4.094-1.562 5.656 0l14.695 14.695c1.562 1.562 1.562 4.094 0 5.656-.781.782-1.805 1.172-2.828 1.172z"/></g><path d="m238 268.674h-144v-32.902c0-14.82 8.534-28.25 21.776-34.269l50.224-22.829 50.224 22.829c13.242 6.019 21.776 19.449 21.776 34.269z" fill="#fff"/><path d="m238 272.674h-144c-2.211 0-4-1.789-4-4v-32.902c0-16.367 9.469-31.25 24.121-37.91l50.223-22.828c1.055-.477 2.258-.477 3.312 0l50.223 22.828c14.652 6.66 24.121 21.543 24.121 37.91v32.902c0 2.211-1.789 4-4 4zm-140-8h136v-28.902c0-13.238-7.629-25.262-19.434-30.629l-48.566-22.075-48.566 22.074c-11.805 5.368-19.434 17.391-19.434 30.629z" fill="#4c241d"/><path d="m166 208.674c-8.837 0-16-7.163-16-16v-20h32v20c0 8.836-7.163 16-16 16z" fill="#e7d1c4"/><path d="m166 212.674c-11.027 0-20-8.973-20-20v-20c0-2.211 1.789-4 4-4h32c2.211 0 4 1.789 4 4v20c0 11.027-8.973 20-20 20zm-12-36v16c0 6.617 5.383 12 12 12s12-5.383 12-12v-16z" fill="#4c241d"/><path d="m222.123 119.565c-24.123 13.109-83.904-12.188-86.094-32.111l-.383.033c1.404 29.27-21.646 32.023-21.646 32.023-3.635 1.589-6.145 5.274-5.993 9.53.114 3.199 2.081 6.09 4.734 7.88 3.217 2.171 5.98 2.017 8.431 1.192 3.969 19.359 18.022 35.548 37.427 41.794 5.563 1.791 11.581 1.62 17.141-.182l1.775-.575c19.093-6.188 33.023-22.039 37.173-41.079 2.441.861 5.222 1.011 8.371-.95 2.549-1.588 4.495-4.194 4.862-7.175.565-4.583-1.976-8.647-5.798-10.38z" fill="#e7d1c4"/><path d="m166.754 185.174c-3.199 0-6.352-.488-9.379-1.461-19.199-6.18-33.934-21.711-39.223-41.035-2.668.008-5.176-.773-7.648-2.441-3.914-2.645-6.344-6.773-6.492-11.055-.207-5.781 3.082-11.02 8.387-13.336.359-.156.738-.262 1.129-.309.766-.102 19.324-2.84 18.121-27.859-.102-2.152 1.52-4.004 3.672-4.18 2.105-.152 4.441 1.367 4.684 3.52.645 5.879 8.965 13.668 21.711 20.332 18.402 9.621 45.152 15.941 58.496 8.699 1.098-.594 2.414-.648 3.562-.129 5.609 2.547 8.871 8.375 8.117 14.512-.492 4-3.004 7.766-6.715 10.082-2.418 1.504-4.852 2.246-7.527 2.152-5.441 18.934-20.051 34.176-38.898 40.285l-1.77.578c-3.391 1.098-6.833 1.645-10.227 1.645zm-45.582-51.063c.691 0 1.383.18 1.996.531.992.574 1.691 1.543 1.922 2.664 3.738 18.234 17.047 33.098 34.738 38.789 4.629 1.492 9.707 1.434 14.684-.176l1.766-.578c17.387-5.633 30.605-20.242 34.5-38.125.246-1.121.961-2.086 1.965-2.645 1-.555 2.195-.668 3.277-.273 1.809.641 3.238.477 4.926-.574 1.68-1.051 2.805-2.645 3.008-4.27.254-2.062-.543-4.047-2.051-5.336-16.941 7.414-44.617.398-63.895-9.68-8.363-4.371-14.969-9.195-19.434-14.086-4.324 18.223-19.734 22.289-23.344 23-2.055 1.066-3.309 3.199-3.227 5.543.062 1.707 1.203 3.512 2.977 4.707 1.941 1.32 3.328 1.258 4.918.715.414-.135.844-.206 1.274-.206z" fill="#4c241d"/><path d="m166 164.674c-2.922 0-5.734-1.062-7.926-2.992-1.656-1.457-1.816-3.984-.355-5.645 1.465-1.66 3.992-1.812 5.645-.355.516.453 1.391.992 2.637.992 1.145 0 2.199-.469 2.969-1.316 1.484-1.645 4.008-1.758 5.648-.281 1.641 1.484 1.766 4.012.281 5.648-2.274 2.511-5.516 3.949-8.899 3.949z" fill="#4c241d"/><path d="m194 112.674h-51.141c-10.446 0-19.774 7.637-20.766 18.035-1.138 11.929 8.212 21.965 19.906 21.965 9.244 0 17.023-6.271 19.315-14.791.821-3.052 3.524-5.209 6.684-5.209 3.071 0 5.863 2.002 6.625 4.977 2.212 8.637 10.047 15.023 19.374 15.023 10.813.001 20.002-9.189 20.002-20.002 0-11.045-8.954-19.998-19.999-19.998z" fill="#c1dbdc"/><path d="m194 156.674c-10.973 0-20.531-7.414-23.25-18.031-.293-1.141-1.449-1.969-2.75-1.969-1.324 0-2.461.902-2.82 2.246-2.812 10.453-12.344 17.754-23.18 17.754-6.746 0-13.219-2.863-17.762-7.859-4.539-4.988-6.77-11.727-6.125-18.484 1.156-12.145 12.027-21.656 24.746-21.656h51.141c13.234 0 24 10.766 24 24 0 13.007-10.992 23.999-24 23.999zm-26-28c4.98 0 9.297 3.285 10.5 7.984 1.812 7.074 8.184 12.016 15.5 12.016 8.672 0 16-7.328 16-16 0-8.824-7.176-16-16-16h-51.141c-8.641 0-16.012 6.332-16.785 14.414-.434 4.586 1.016 8.969 4.082 12.348 3.031 3.328 7.344 5.238 11.844 5.238 7.227 0 13.578-4.867 15.453-11.832 1.293-4.809 5.629-8.168 10.547-8.168z" fill="#4c241d"/><circle cx="188" cy="126.674" fill="#4c241d" r="4"/><circle cx="148" cy="126.674" fill="#4c241d" r="4"/><path d="m166 270.377c-2.211 0-4-1.789-4-4v-57.703c0-2.211 1.789-4 4-4s4 1.789 4 4v57.703c0 2.211-1.789 4-4 4z" fill="#4c241d"/><path d="m80.18 197.129 9.137-2.284c-1.836-8.602-7.567-15.752-15.317-19.44v-26.731h-24v26.731c-6.978 3.32-12.351 9.437-14.697 16.897l16.596 4.526c9.246 2.521 18.984 2.625 28.281.301z" fill="#fff"/><path d="m66.621 202.795c-5.312 0-10.625-.703-15.777-2.109l-16.59-4.523c-1.051-.285-1.938-.988-2.461-1.941-.52-.953-.629-2.078-.305-3.117 2.398-7.637 7.621-14.117 14.512-18.109v-24.32c0-2.211 1.789-4 4-4h24c2.211 0 4 1.789 4 4v24.32c7.73 4.496 13.344 12.184 15.227 21.016.453 2.109-.852 4.195-2.941 4.719l-9.137 2.277c-4.758 1.193-9.645 1.787-14.528 1.787zm-25.898-13.16 12.227 3.332c8.566 2.34 17.652 2.434 26.258.281 0 0 .004 0 .004-.004l5.082-1.266c-2.207-5.645-6.512-10.344-12.012-12.961-1.395-.664-2.281-2.07-2.281-3.613v-22.73h-16.001v22.73c0 1.543-.887 2.949-2.281 3.613-4.742 2.254-8.602 6.016-10.996 10.618z" fill="#4c241d"/><path d="m80.18 197.129c-9.297 2.324-19.036 2.221-28.282-.301l-16.596-4.526c-.832 2.645-1.303 5.45-1.303 8.372 0 15.464 12.536 28 28 28s28-12.536 28-28c0-2.009-.28-3.942-.683-5.829z" fill="#a9ba5a"/><path d="m62 232.674c-17.645 0-32-14.355-32-32 0-3.227.5-6.449 1.492-9.578.645-2.047 2.781-3.203 4.863-2.652l16.594 4.523c8.566 2.34 17.652 2.434 26.258.281 0 0 .004 0 .004-.004l9.137-2.277c1.047-.27 2.164-.09 3.086.484s1.57 1.5 1.793 2.559c.527 2.469.773 4.586.773 6.664 0 17.644-14.355 32-32 32zm-23.746-35.422c-.168 1.137-.254 2.281-.254 3.422 0 13.234 10.766 24 24 24s24-10.766 24-24c0-.285-.008-.578-.02-.871l-4.832 1.203c-9.934 2.496-20.418 2.379-30.305-.32z" fill="#4c241d"/><path d="m230 192.674h24v32h-24z" fill="#fff"/><path d="m254 228.674h-24c-2.211 0-4-1.789-4-4v-32c0-2.211 1.789-4 4-4h24c2.211 0 4 1.789 4 4v32c0 2.211-1.789 4-4 4zm-20-8h16v-24h-16z" fill="#4c241d"/><path d="m230 224.674v32c0 6.627 5.373 12 12 12s12-5.373 12-12v-32z" fill="#f53e28"/><path d="m242 272.674c-8.824 0-16-7.176-16-16v-32c0-2.211 1.789-4 4-4h24c2.211 0 4 1.789 4 4v32c0 8.824-7.176 16-16 16zm-8-44v28c0 4.41 3.59 8 8 8s8-3.59 8-8v-28z" fill="#4c241d"/><path d="m117.66 271.443c-2.211 0-4-1.789-4-4v-18.77c0-2.211 1.789-4 4-4s4 1.789 4 4v18.77c0 2.211-1.789 4-4 4z" fill="#4c241d"/><path d="m213.66 271.443c-2.211 0-4-1.789-4-4v-18.77c0-2.211 1.789-4 4-4s4 1.789 4 4v18.77c0 2.211-1.789 4-4 4z" fill="#4c241d"/><circle cx="192" cy="230.674" fill="#4c241d" r="4.164"/><circle cx="192" cy="246.674" fill="#4c241d" r="4.164"/></svg>